<svg width="52" height="52" viewBox="0 0 52 52" fill="none" xmlns="http://www.w3.org/2000/svg">
<circle cx="26" cy="26" r="26" fill="white"/>
<path d="M36.6066 29.3934C34.9729 27.7596 33.0283 26.5502 30.9066 25.8181C33.179 24.253 34.6719 21.6337 34.6719 18.6719C34.6719 13.8902 30.7817 10 26 10C21.2183 10 17.3281 13.8902 17.3281 18.6719C17.3281 21.6337 18.821 24.253 21.0935 25.8181C18.9718 26.5502 17.0272 27.7596 15.3934 29.3934C12.5603 32.2265 11 35.9934 11 40H13.3438C13.3438 33.0213 19.0213 27.3438 26 27.3438C32.9787 27.3438 38.6562 33.0213 38.6562 40H41C41 35.9934 39.4397 32.2265 36.6066 29.3934ZM26 25C22.5107 25 19.6719 22.1612 19.6719 18.6719C19.6719 15.1825 22.5107 12.3438 26 12.3438C29.4893 12.3438 32.3281 15.1825 32.3281 18.6719C32.3281 22.1612 29.4893 25 26 25Z" fill="#2E266F"/>
<circle cx="43.5" cy="7.5" r="7.5" fill="#31A24C"/>
</svg>
